<?xml version="1.0" standalone="no"?>
<!DOCTYPE svg PUBLIC "-//W3C//DTD SVG 20010904//EN"
 "http://www.w3.org/TR/2001/REC-SVG-20010904/DTD/svg10.dtd">
<svg version="1.0" xmlns="http://www.w3.org/2000/svg"
 width="1186.000000pt" height="1186.000000pt" viewBox="0 0 1186.000000 1186.000000"
 preserveAspectRatio="xMidYMid meet">
<metadata>
Created by potrace 1.11, written by Peter Selinger 2001-2013
</metadata>
<g transform="translate(0.000000,1186.000000) scale(0.100000,-0.100000)"
fill="#000000" stroke="none">
<path d="M5840 10561 c-1 -31 -1 -266 -1 -524 l0 -467 -656 0 c-361 0 -658 -1
-660 -3 -2 -3 -17 -56 -34 -118 -110 -413 -250 -713 -455 -971 -61 -77 -247
-266 -304 -308 -18 -14 -51 -39 -71 -56 -21 -18 -85 -63 -141 -100 -57 -37
-116 -77 -132 -87 -49 -33 -365 -190 -461 -230 -262 -106 -533 -187 -785 -233
-14 -3 -31 -7 -39 -10 -8 -2 -64 -11 -125 -20 -61 -8 -123 -17 -137 -19 -25
-5 -55 -8 -204 -20 -70 -6 -216 -13 -352 -16 l-72 -1 0 -592 c0 -325 0 -621
-1 -658 l0 -68 -520 0 -520 0 0 -42 0 -43 520 1 520 1 0 -66 c1 -36 1 -339 1
-673 l1 -608 227 0 c346 0 522 -9 741 -41 796 -112 1358 -474 1862 -1200 213
-306 370 -619 408 -817 9 -45 17 -62 29 -63 9 0 297 -2 641 -4 344 -2 646 -4
672 -4 l46 -1 1 -603 c0 -331 0 -617 1 -634 0 -32 2 -33 40 -33 25 0 40 5 41
13 0 6 1 292 1 634 l1 623 656 -3 655 -2 14 45 c7 25 15 52 17 60 49 193 189
530 298 713 26 43 47 80 47 83 0 6 106 159 159 229 114 153 294 340 436 454
316 254 767 461 1170 536 133 25 241 39 385 51 90 8 430 7 515 0 39 -3 99 -9
135 -12 36 -3 80 -7 98 -9 17 -2 33 -1 33 3 1 4 2 304 3 667 l1 660 560 2
c308 0 566 2 573 2 7 1 12 16 12 41 l0 40 -572 2 -573 3 0 675 0 675 -45 -1
c-25 0 -83 -4 -130 -9 -107 -12 -569 -13 -675 -1 -379 40 -707 132 -1043 292
-296 140 -551 313 -737 499 -136 135 -205 223 -304 383 -73 117 -199 377 -218
447 -1 6 -23 69 -48 140 -25 72 -61 188 -79 259 -18 70 -39 132 -47 137 -8 5
-302 9 -655 9 l-641 0 1 525 1 525 -42 -2 -43 -1 0 -56z"/>
</g>
</svg>
