<?xml version="1.0" standalone="no"?><!DOCTYPE svg PUBLIC "-//W3C//DTD SVG 1.1//EN" "http://www.w3.org/Graphics/SVG/1.1/DTD/svg11.dtd"><svg width="100%" height="100%" viewBox="0 0 156 42" version="1.1" xmlns="http://www.w3.org/2000/svg" xmlns:xlink="http://www.w3.org/1999/xlink" xml:space="preserve" style="fill-rule:evenodd;clip-rule:evenodd;stroke-linejoin:round;stroke-miterlimit:1.41421;"><path d="M140.132,1.475l0,2.202c5.656,0.655 6.906,2.739 6.906,8.275l0,17.408l-0.295,-0.001l-21.195,-27.884l-12.561,0l-15.193,0l0,2.202c5.657,0.655 6.906,2.739 6.906,8.275l0,14.822c0,4.465 -0.893,6.668 -2.858,8.692c-1.666,1.667 -3.928,2.56 -6.846,2.56c-6.369,0 -10.298,-2.977 -10.298,-9.941l0,-21.789c0,-1.964 1.071,-2.381 5.179,-2.559l0,-2.262l-3.071,0l-7.306,0l-8.695,0c-2.229,0 -2.827,-0.002 -5.056,0c-1.222,0 -3.743,0.007 -4.955,-0.18c-1.239,-0.191 -2.699,-0.736 -3.925,-0.966c-1.361,-0.254 -2.751,-0.329 -4.134,-0.329c-7.665,0 -12.844,5.47 -12.844,12.972c0,7.322 5.953,9.643 11.965,11.548c6.847,2.263 9.466,3.811 9.466,7.918c0,3.155 -2.143,6.668 -7.322,6.668c-4.942,0 -8.623,-3.02 -11.66,-9.747l-2.925,0l0,12.306l2.528,0l1.996,-1.785c2.322,1.129 6.012,1.785 9.227,1.785c10.061,0 13.99,-6.727 13.99,-13.335c0,-7.382 -5.834,-9.703 -11.31,-11.489c-6.549,-2.083 -9.466,-3.393 -9.466,-7.441c0,-3.869 2.678,-6.251 6.31,-6.251c4.345,0 7.989,1.502 9.936,7.035l2.5,0l0,-1.087c0,-2.899 2.197,-5.312 5.678,-5.312c3.482,0 5.679,2.413 5.679,5.312l0,19.285c0,8.751 6.072,13.216 16.073,13.216c10,0 15.181,-5.774 15.181,-13.454l0,-19.047c0,-2.899 2.179,-5.333 5.661,-5.333c3.48,0 5.661,2.434 5.661,5.333l0,21.012c0,5.655 -0.774,7.56 -6.072,8.334l0,2.202l15.418,0l0,-2.202c-5.715,-0.715 -6.429,-2.739 -6.429,-8.334l0,-19.932l0.218,0.008l23.86,31.48l3.901,0l0,-29.713c0,-5.536 0.416,-7.501 5.715,-8.275l0,-2.202l-15.538,0Z" style="fill:#000;fill-rule:nonzero;"/><path d="M21.888,37.947c-6.297,0 -12.833,-5.697 -12.833,-17.57c0,-11.574 5.398,-17.512 11.514,-17.512c5.217,0 9.175,4.379 11.574,11.635l2.699,0l0,-14.213l-2.4,0l-1.738,2.578c-2.459,-1.378 -6.176,-2.578 -9.955,-2.578c-11.754,0 -20.749,8.936 -20.749,21.048c0,11.815 7.257,20.33 19.729,20.33c8.576,0 13.916,-4.756 16.732,-11.226l-2.279,-1.08c-2.819,5.698 -6.717,8.588 -12.294,8.588" style="fill:#000;fill-rule:nonzero;"/></svg>